<svg width="25" height="25" viewBox="0 0 25 25" fill="none" xmlns="http://www.w3.org/2000/svg">
<rect width="25" height="25" rx="5" fill="#282A33"/>
<path fill-rule="evenodd" clip-rule="evenodd" d="M20.1185 8.53223C20.2387 8.15142 20.1185 7.87444 19.5862 7.87444H17.8174C17.371 7.87444 17.1649 8.11677 17.0447 8.37647C17.0447 8.37647 16.1345 10.5922 14.8638 12.029C14.4517 12.4444 14.2628 12.5829 14.0396 12.5829C13.9193 12.5829 13.7648 12.4444 13.7648 12.0636V8.51491C13.7648 8.06485 13.6274 7.85712 13.2496 7.85712H10.4677C10.193 7.85712 10.0213 8.06485 10.0213 8.27258C10.0213 8.70537 10.6566 8.80921 10.7253 10.0209V12.6522C10.7253 13.2234 10.6223 13.3273 10.3991 13.3273C9.79803 13.3273 8.33841 11.0942 7.46263 8.54955C7.29088 8.04752 7.11918 7.85712 6.67272 7.85712H4.88679C4.37163 7.85712 4.28577 8.0995 4.28577 8.35915C4.28577 8.82653 4.88679 11.1808 7.08481 14.2967C8.54448 16.4259 10.6223 17.5684 12.4941 17.5684C13.6274 17.5684 13.7648 17.3087 13.7648 16.876V15.2661C13.7648 14.7467 13.8678 14.6602 14.2285 14.6602C14.486 14.6602 14.9497 14.7987 15.9972 15.82C17.1992 17.0317 17.4053 17.5857 18.075 17.5857H19.8437C20.3589 17.5857 20.5993 17.326 20.4619 16.824C20.3074 16.322 19.7235 15.595 18.968 14.7294C18.5558 14.2448 17.9376 13.7081 17.7487 13.4484C17.4911 13.1023 17.5598 12.9638 17.7487 12.6522C17.7316 12.6522 19.8952 9.57089 20.1185 8.53223Z" fill="white"/>
</svg>
